<svg width="128" height="128" xmlns="http://www.w3.org/2000/svg" xmlns:xlink="http://www.w3.org/1999/xlink">
 <g>
  <title>background</title>
  <rect fill="none" id="canvas_background" height="402" width="582" y="-1" x="-1"/>
 </g>
 <g>
  <title stroke="#667fea">Layer 1</title>
  <defs stroke="#667fea">
   <rect width="128" id="XMLID_217_" height="128"/>
  </defs>
  <clipPath stroke="#667fea" id="XMLID_2_">
   <use id="svg_1" xlink:href="#XMLID_217_"/>
  </clipPath>
  <polyline stroke-miterlimit="10" stroke-linejoin="round" stroke-linecap="round" stroke-width="8" stroke="#667fea" fill="none" points="40,52 12,52 12,12 52,12 52,40    " id="XMLID_2228_" class="st1"/>
  <polyline stroke-miterlimit="10" stroke-linejoin="round" stroke-linecap="round" stroke-width="8" stroke="#667fea" fill="none" points="52,88 52,116 12,116 12,76 40,76    " id="XMLID_2227_" class="st1"/>
  <polyline stroke-miterlimit="10" stroke-linejoin="round" stroke-linecap="round" stroke-width="8" stroke="#667fea" fill="none" points="76,40 76,12 116,12 116,52 88,52    " id="XMLID_2226_" class="st1"/>
  <rect stroke="#667fea" fill="#667fea" y="24" x="24" width="16" id="XMLID_2225_" height="16" class="st10"/>
  <rect stroke="#667fea" fill="#667fea" y="88" x="24" width="16" id="XMLID_2224_" height="16" class="st10"/>
  <rect stroke="#667fea" fill="#667fea" y="24" x="88" width="16" id="XMLID_2223_" height="16" class="st10"/>
  <polyline stroke-miterlimit="10" stroke-linejoin="round" stroke-linecap="round" stroke-width="8" stroke="#667fea" fill="none" points="36,52 36,64 20,64    " id="XMLID_2222_" class="st1"/>
  <line stroke-miterlimit="10" stroke-linejoin="round" stroke-linecap="round" stroke-width="8" stroke="#667fea" fill="none" y2="36" y1="20" x2="64" x1="64" id="XMLID_2221_" class="st1"/>
  <line stroke-miterlimit="10" stroke-linejoin="round" stroke-linecap="round" stroke-width="8" stroke="#667fea" fill="none" y2="88" y1="88" x2="80" x1="64" id="XMLID_2220_" class="st1"/>
  <rect stroke="#667fea" fill="#667fea" y="96" x="96" width="16" id="XMLID_2219_" height="16" class="st10"/>
  <polyline stroke-miterlimit="10" stroke-linejoin="round" stroke-linecap="round" stroke-width="8" stroke="#667fea" fill="none" points="88,76 92,76 92,88    " id="XMLID_2213_" class="st1"/>
  <polyline stroke-miterlimit="10" stroke-linejoin="round" stroke-linecap="round" stroke-width="8" stroke="#667fea" fill="none" points="100,64 116,64 116,72    " id="XMLID_2204_" class="st1"/>
  <polyline stroke-miterlimit="10" stroke-linejoin="round" stroke-linecap="round" stroke-width="8" stroke="#667fea" fill="none" points="104,76 104,88 116,88 116,84    " id="XMLID_2181_" class="st1"/>
  <line stroke-miterlimit="10" stroke-linejoin="round" stroke-linecap="round" stroke-width="8" stroke="#667fea" fill="none" y2="100" y1="100" x2="68" x1="52" id="XMLID_1722_" class="st1"/>
  <line stroke-miterlimit="10" stroke-linejoin="round" stroke-linecap="round" stroke-width="8" stroke="#667fea" fill="none" y2="100" y1="100" x2="88" x1="80" id="XMLID_1721_" class="st1"/>
  <polyline stroke-miterlimit="10" stroke-linejoin="round" stroke-linecap="round" stroke-width="8" stroke="#667fea" fill="none" points="88,116 88,112 64,112    " id="XMLID_1720_" class="st1"/>
  <circle fill-opacity="0" stroke="#667fea" fill="#ffffff" r="24" id="XMLID_1712_" cy="64" cx="64" class="st5"/>
  <circle stroke-miterlimit="10" stroke-linejoin="round" stroke-linecap="round" stroke-width="8" stroke="#667fea" fill="none" r="24" id="XMLID_1711_" cy="63.610231" cx="64.000001" class="st1"/>
  <polyline stroke-miterlimit="10" stroke-linejoin="round" stroke-linecap="round" stroke-width="8" stroke="#667fea" fill="none" points="56,64 64,72 72,56    " id="XMLID_1347_" class="st1"/>
 </g>
</svg>